<?xml version="1.0" standalone="no"?>
<!DOCTYPE svg PUBLIC "-//W3C//DTD SVG 20010904//EN"
 "http://www.w3.org/TR/2001/REC-SVG-20010904/DTD/svg10.dtd">
<svg version="1.0" xmlns="http://www.w3.org/2000/svg"
 width="920.000000pt" height="512.000000pt" viewBox="0 0 920.000000 512.000000"
 preserveAspectRatio="xMidYMid meet">

<g transform="translate(0.000000,512.000000) scale(0.100000,-0.100000)"
fill="#000000" stroke="none">
<path d="M3160 4349 c-156 -30 -300 -76 -398 -126 -148 -77 -287 -195 -367
-314 -16 -24 -33 -46 -36 -49 -7 -6 -69 -127 -92 -180 -8 -19 -25 -75 -37
-125 -13 -49 -29 -113 -37 -142 -20 -68 -23 -205 -6 -273 8 -30 20 -84 28
-120 43 -190 148 -394 262 -508 36 -36 42 -62 17 -83 -44 -36 -129 -190 -167
-300 -45 -130 -51 -176 -51 -339 1 -126 5 -169 23 -233 33 -121 96 -260 142
-315 8 -10 33 -43 57 -73 23 -31 68 -79 100 -106 273 -238 600 -300 982 -187
25 8 179 84 215 106 31 20 168 134 185 155 9 10 35 44 58 75 32 42 51 57 75
62 47 9 769 4 857 -5 111 -12 114 -13 171 -86 136 -175 285 -281 483 -347 150
-50 209 -61 316 -61 104 0 127 4 304 56 233 70 450 247 555 456 64 127 93 228
111 381 27 242 -52 528 -197 709 -18 23 -33 45 -33 50 0 5 14 22 31 39 90 85
209 292 252 436 71 239 82 354 48 482 -10 39 -24 98 -31 131 -8 33 -16 65 -20
70 -4 6 -20 42 -35 80 -94 229 -321 456 -551 553 -143 60 -231 76 -424 76
-220 1 -313 -20 -494 -111 -142 -71 -256 -164 -368 -301 -26 -31 -30 -33 -150
-47 -199 -23 -674 -17 -759 10 -10 3 -30 26 -46 50 -40 65 -186 203 -273 261
-79 52 -199 114 -222 114 -8 0 -18 4 -24 9 -8 8 -56 21 -206 56 -72 17 -197
24 -248 14z m337 -168 c178 -61 300 -153 422 -315 38 -51 80 -100 94 -109 94
-61 834 -78 1147 -25 79 13 86 18 145 95 62 84 175 186 260 236 504 298 1089
-16 1210 -650 48 -248 -20 -541 -176 -764 -44 -62 -53 -67 -78 -46 -32 27 -94
44 -128 35 -51 -14 -78 -81 -52 -130 6 -12 50 -60 96 -107 121 -122 169 -202
220 -368 23 -79 26 -104 26 -248 1 -187 -15 -258 -90 -415 -175 -366 -573
-552 -903 -422 -138 54 -271 165 -362 305 -78 117 -117 131 -396 142 -220 9
-910 8 -957 0 -61 -11 -70 -19 -140 -114 -36 -49 -82 -104 -102 -122 -42 -38
-167 -129 -177 -129 -3 0 -25 -9 -49 -19 -104 -47 -148 -56 -282 -55 -115 0
-138 3 -203 27 -40 14 -98 41 -129 58 -76 44 -194 157 -242 234 -35 54 -50 84
-92 180 -5 11 -19 58 -31 105 -33 123 -33 360 0 473 46 161 132 304 260 433
93 94 106 116 98 158 -17 89 -109 103 -195 29 -22 -18 -46 -33 -54 -33 -31 0
-134 187 -175 317 -66 209 -65 422 3 636 103 327 391 587 705 637 95 15 235 3
327 -29z"/>
<path d="M3563 3361 c-17 -11 -37 -29 -42 -40 -7 -13 -11 -124 -11 -313 1
-265 2 -295 18 -314 41 -49 108 -58 162 -21 39 26 51 60 49 138 -1 31 1 61 5
67 5 8 44 12 114 12 116 0 165 9 227 42 67 36 91 70 106 152 16 87 -3 159 -57
213 -65 64 -112 75 -344 80 -182 4 -197 3 -227 -16z m357 -168 c33 -22 40 -33
40 -65 0 -48 -40 -68 -136 -68 l-84 0 0 68 c0 38 3 72 7 75 3 4 38 7 77 7 51
0 79 -5 96 -17z"/>
<path d="M4313 3366 c-60 -27 -63 -45 -63 -351 0 -294 0 -297 50 -332 18 -13
64 -15 283 -14 253 1 262 2 284 23 26 24 30 73 9 100 -24 32 -66 39 -225 37
l-156 -1 0 59 0 58 141 5 c164 6 184 15 184 80 0 65 -20 74 -184 80 l-141 5
-3 48 c-2 26 1 47 5 48 4 1 82 2 172 3 l164 2 23 28 c31 35 30 67 0 103 l-24
28 -244 2 c-191 2 -250 0 -275 -11z"/>
<path d="M4994 3370 c-55 -22 -71 -99 -29 -144 23 -25 29 -26 118 -26 77 0 96
-3 101 -16 3 -9 6 -113 6 -232 0 -197 2 -220 20 -249 41 -67 159 -67 200 0 18
29 20 52 20 258 0 190 2 228 15 232 8 4 51 6 95 6 96 0 126 14 135 65 8 42
-11 86 -45 103 -29 15 -600 18 -636 3z"/>
<path d="M3237 2469 c-53 -12 -87 -32 -124 -71 -41 -42 -53 -76 -53 -144 0
-61 15 -96 57 -135 46 -43 81 -57 257 -100 49 -12 93 -35 99 -51 10 -29 -16
-57 -64 -68 -42 -10 -53 -9 -91 9 -24 11 -60 35 -81 53 -32 27 -47 33 -85 32
-36 -1 -50 -6 -69 -28 -38 -44 -27 -109 27 -154 50 -43 215 -85 300 -78 193
17 300 105 300 246 0 58 -15 93 -57 131 -49 44 -75 56 -205 89 -122 32 -168
54 -168 84 0 23 47 46 93 46 41 0 70 -14 154 -76 50 -36 143 13 143 76 0 72
-47 111 -165 136 -68 15 -211 16 -268 3z"/>
<path d="M3818 2462 c-54 -33 -58 -55 -58 -350 0 -168 4 -281 11 -300 25 -73
140 -95 198 -38 24 25 26 34 31 139 l5 112 120 0 120 0 2 -75 c0 -41 2 -91 2
-111 3 -101 167 -135 221 -46 19 30 20 52 20 314 0 250 -2 285 -17 312 -38 65
-139 79 -192 27 -24 -24 -26 -36 -31 -124 l-5 -97 -120 0 -120 0 -5 96 c-3 62
-10 102 -19 113 -38 46 -115 59 -163 28z"/>
<path d="M4783 2461 c-181 -62 -266 -205 -244 -406 20 -175 120 -276 306 -311
192 -35 376 50 445 206 21 47 24 70 24 160 0 92 -3 112 -26 162 -60 131 -198
209 -365 207 -56 0 -107 -7 -140 -18z m200 -166 c67 -28 105 -120 92 -224 -13
-104 -63 -156 -150 -156 -99 0 -149 65 -149 195 0 98 26 153 87 181 51 23 74
24 120 4z"/>
<path d="M5417 2439 c-44 -34 -49 -72 -45 -366 l3 -273 28 -27 c24 -25 35 -28
87 -28 52 1 64 5 87 27 24 24 27 36 31 112 l5 86 66 0 c182 1 293 37 346 112
28 40 30 49 30 138 0 84 -3 99 -24 131 -62 91 -125 109 -386 109 -189 0 -204
-1 -228 -21z m389 -170 c31 -29 31 -69 0 -98 -22 -20 -36 -24 -108 -25 l-83
-1 -3 64 c-2 35 -1 69 1 75 3 7 34 10 87 9 70 -2 86 -6 106 -24z"/>
</g>
</svg>
